<?xml version="1.0" encoding="utf-8"?>
<!-- Generator: Adobe Illustrator 25.0.0, SVG Export Plug-In . SVG Version: 6.00 Build 0)  -->
<svg version="1.1" id="Layer_1" xmlns="http://www.w3.org/2000/svg" xmlns:xlink="http://www.w3.org/1999/xlink" x="0px" y="0px"
	 viewBox="0 0 500 500" style="enable-background:new 0 0 500 500;" xml:space="preserve">
<style type="text/css">
	.st0{fill:#fff;}
</style>
<g>
	<polygon id="XMLID_7_" class="st0" points="130.8,221 105.5,221 95.5,277.6 111,277.6 117.4,233.5 118.9,233.5 125.3,277.6 
		140.8,277.6 	"/>
	<polygon id="XMLID_6_" class="st0" points="204,277.6 203.3,235 201.8,235 194.6,277.6 179.4,277.6 172.1,235 170.7,235 170,277.6 
		155.6,277.6 157.9,221 182.1,221 186.3,252.3 187.6,252.3 191.9,221 216,221 218.4,277.6 	"/>
	<polygon id="XMLID_5_" class="st0" points="292.7,265.1 292.7,221 308.6,221 308.6,264.3 308.6,264.6 308.6,264.8 308.6,265 
		308.6,265.3 308.7,265.5 308.7,265.7 308.8,265.9 308.8,266.1 308.9,266.3 309,266.5 309.1,266.7 309.2,266.9 309.3,267.1 
		309.5,267.2 309.6,267.4 309.7,267.6 309.9,267.7 310,267.9 310.2,268 310.4,268.1 310.6,268.3 310.8,268.4 310.9,268.5 
		311.1,268.6 311.3,268.7 311.6,268.7 311.8,268.8 312,268.8 312.2,268.9 312.4,268.9 312.7,268.9 312.9,268.9 313.1,268.9 
		313.4,268.9 313.6,268.9 313.8,268.8 314,268.8 314.2,268.7 314.4,268.7 314.6,268.6 314.8,268.5 315,268.4 315.2,268.3 
		315.4,268.1 315.6,268 315.7,267.9 315.9,267.7 316,267.6 316.2,267.4 316.3,267.2 316.4,267.1 316.6,266.9 316.7,266.7 
		316.8,266.5 316.9,266.3 316.9,266.1 317,265.9 317.1,265.7 317.1,265.5 317.2,265.3 317.2,265 317.2,264.8 317.2,264.6 
		317.2,264.3 317.2,221 333.1,221 333.1,265.3 333,266.3 332.9,267.2 332.8,268.1 332.6,268.9 332.4,269.8 332.1,270.6 331.7,271.3 
		331.3,272.1 330.9,272.8 330.4,273.5 329.9,274.1 329.3,274.7 328.8,275.3 328.1,275.9 327.5,276.4 326.8,276.9 326,277.3 
		325.3,277.8 324.5,278.2 323.7,278.6 322.9,278.9 322,279.2 321.2,279.5 320.3,279.8 319.4,280 318.5,280.2 316.7,280.5 
		314.8,280.6 312.9,280.7 311,280.6 309.1,280.4 307.3,280.1 306.4,279.9 305.5,279.7 304.6,279.4 303.7,279.2 302.9,278.8 
		302.1,278.5 301.3,278.1 300.5,277.7 299.7,277.2 299,276.8 298.3,276.3 297.7,275.7 297,275.2 296.4,274.6 295.9,274 295.4,273.3 
		294.9,272.6 294.5,271.9 294.1,271.2 293.7,270.4 293.4,269.6 293.2,268.7 293,267.9 292.9,267 292.8,266 	"/>
	<polygon id="XMLID_4_" class="st0" points="400.5,221 386.7,221 386.7,256.4 386.4,256.4 370.4,221 353.4,221 353.4,277.6 
		367.2,277.6 367.2,244.5 367.5,244.5 382.5,277.6 400.5,277.6 	"/>
	<polygon id="XMLID_3_" class="st0" points="235.2,266.4 235.2,259 251,259 250.9,262.3 250.9,263.1 251,263.9 251,264.2 
		251.1,264.6 251.1,264.9 251.2,265.2 251.3,265.5 251.4,265.7 251.4,265.8 251.5,266 251.6,266.1 251.6,266.2 251.7,266.4 
		251.8,266.5 251.9,266.6 252,266.7 252.1,266.9 252.2,267 252.3,267.1 252.5,267.2 252.6,267.3 252.7,267.4 252.9,267.5 253,267.5 
		253.2,267.6 253.3,267.7 253.5,267.8 253.7,267.8 253.9,267.9 254.3,268 254.7,268.1 255.2,268.1 255.7,268.2 255.8,268.2 
		255.9,268.2 256,268.2 256.2,268.2 256.3,268.1 256.4,268.1 256.5,268.1 256.6,268.1 256.9,268 257.1,267.9 257.3,267.8 
		257.6,267.7 257.8,267.5 258,267.4 258.2,267.2 258.4,267 258.6,266.8 258.8,266.6 259,266.3 259.1,266.1 259.3,265.8 259.4,265.5 
		259.5,265.3 259.6,264.9 259.7,264.6 259.8,264.3 259.8,263.9 259.8,263.6 259.8,263.2 259.8,262.8 259.7,262.4 259.6,262 
		259.5,261.6 259.4,261.2 259.2,260.8 259,260.3 258.9,260.1 258.7,259.9 258.6,259.7 258.5,259.5 258.3,259.3 258.2,259.1 
		257.9,258.8 257.5,258.5 257.1,258.1 256.7,257.8 256.3,257.5 255.4,257 254.4,256.4 252.1,255.4 249.6,254.2 246.8,252.7 
		245.4,251.9 243.9,250.9 242.4,249.8 240.9,248.6 240.7,248.4 240.5,248.3 240.3,248.1 240.1,247.9 239.9,247.7 239.7,247.5 
		239.3,247.1 239,246.6 238.7,246.1 238.4,245.6 238.1,245.1 237.8,244.5 237.6,243.9 237.4,243.3 237.2,242.7 236.9,241.4 
		236.6,240.1 236.4,238.7 236.3,237.4 236.2,236 236.2,234.7 236.2,233.4 236.3,232.2 236.4,231.1 236.6,230 236.7,229.3 
		236.9,228.5 237.2,227.8 237.5,227.1 237.8,226.5 238.2,225.8 238.6,225.2 239,224.7 239.5,224.1 240,223.6 240.5,223.1 
		241.1,222.7 241.7,222.2 242.4,221.8 243,221.4 243.7,221.1 244.4,220.8 245.1,220.5 245.8,220.2 246.6,219.9 248.2,219.5 
		249.8,219.2 251.5,218.9 253.1,218.8 254.8,218.7 256.5,218.8 258.2,218.9 259.9,219.1 261.6,219.4 263.2,219.8 264.7,220.3 
		266.2,220.8 267.6,221.4 268.2,221.8 268.9,222.1 269.5,222.5 270.1,222.9 270.6,223.3 271.1,223.7 271.6,224.2 272.1,224.6 
		272.5,225.1 272.9,225.6 273.2,226.1 273.4,226.4 273.5,226.6 273.7,226.9 273.8,227.2 273.9,227.5 274,227.7 274.1,228 
		274.2,228.3 274.2,228.6 274.3,228.9 274.3,229.2 274.4,229.5 274.4,229.8 274.4,230.1 274.4,237.9 260,237.9 260.1,234.6 
		260.1,233.9 260.1,233.2 260,232.9 260,232.6 259.9,232.3 259.8,232 259.8,231.9 259.7,231.7 259.7,231.6 259.6,231.5 259.5,231.3 
		259.5,231.2 259.4,231.1 259.3,231 259.2,230.9 259.1,230.8 259,230.7 258.9,230.6 258.8,230.5 258.7,230.4 258.6,230.3 
		258.4,230.2 258.3,230.2 258.1,230.1 258,230 257.8,230 257.6,229.9 257.5,229.8 257.1,229.7 256.7,229.7 256.2,229.6 255.7,229.6 
		255.2,229.6 255,229.6 254.8,229.6 254.6,229.6 254.4,229.7 254.2,229.8 254,229.8 253.8,229.9 253.5,230 253.3,230.2 253.1,230.3 
		252.9,230.4 252.7,230.6 252.5,230.7 252.3,230.9 252.1,231.1 252,231.3 251.9,231.4 251.8,231.5 251.8,231.7 251.7,231.8 
		251.6,231.9 251.6,232 251.5,232.2 251.5,232.3 251.4,232.4 251.4,232.6 251.3,232.7 251.3,232.9 251.3,233 251.3,233.2 
		251.3,233.3 251.2,233.5 251.2,233.6 251.2,233.8 251.3,234 251.3,234.2 251.3,234.5 251.4,234.9 251.5,235.3 251.7,235.7 
		251.8,236.1 252,236.5 252.4,237.1 252.9,237.5 253.3,238 253.7,238.4 254.7,239.3 255.6,240 256.6,240.7 257.6,241.3 258.6,241.9 
		259.7,242.4 263.9,244.3 265.9,245.2 266.9,245.7 267.9,246.3 268.8,246.8 269.7,247.4 270.1,247.8 270.6,248.1 271,248.5 
		271.4,248.8 271.7,249.2 272.1,249.6 272.5,250.1 272.8,250.5 273.1,251 273.4,251.5 273.7,252 274,252.6 274.2,253.2 274.5,253.8 
		274.7,254.4 274.9,255.1 275.1,255.8 275.2,256.5 275.3,257.3 275.4,258.1 275.6,259.8 275.6,261.7 275.5,263.7 275.4,265.9 
		275.3,266.8 275.1,267.6 274.9,268.3 274.6,269.1 274.3,269.8 274,270.5 273.6,271.2 273.1,271.8 272.7,272.5 272.1,273 
		271.6,273.6 271,274.1 270.4,274.6 269.8,275.1 269.1,275.6 268.4,276 267.6,276.4 266.9,276.8 266.1,277.1 265.3,277.4 
		264.5,277.7 263.7,278 262,278.4 260.2,278.8 258.4,279 256.6,279.2 254.7,279.2 252.9,279.1 251.1,279 249.3,278.7 247.6,278.3 
		245.9,277.9 244.3,277.3 243.5,277 242.8,276.6 242.1,276.3 241.4,275.9 240.7,275.5 240.1,275 239.5,274.6 238.9,274.1 
		238.3,273.6 237.8,273 237.4,272.5 236.9,271.9 236.6,271.3 236.4,271 236.2,270.7 236.1,270.3 235.9,270 235.8,269.7 235.7,269.3 
		235.6,269 235.5,268.6 235.4,268.3 235.3,267.9 235.3,267.6 235.2,267.2 235.2,266.8 	"/>
	<polygon id="XMLID_2_" class="st0" points="60.9,218.7 58.4,218.8 56.2,219.1 55.1,219.3 54.1,219.6 53.2,219.8 52.3,220.1 
		51.4,220.4 50.6,220.8 49.8,221.1 49.1,221.5 48.4,221.9 47.7,222.4 47.1,222.8 46.5,223.3 46,223.8 45.5,224.3 45,224.8 
		44.6,225.4 44.2,225.9 43.9,226.5 43.5,227.1 43.3,227.7 43,228.3 42.8,228.9 42.6,229.5 42.4,230.2 42.2,230.8 42.1,231.5 
		42,232.1 42,232.8 41.9,234.1 41.9,235.4 42,236.7 42.2,237.9 42.4,239.2 42.7,240.4 43,241.6 43.4,242.7 43.8,243.7 44.3,244.7 
		44.7,245.6 45.2,246.4 45.7,247.1 46,247.4 46.2,247.7 46.4,248 46.7,248.2 46.9,248.4 47,248.5 47.1,248.6 48.7,249.8 50.1,250.9 
		51.6,251.9 53,252.7 55.8,254.2 58.3,255.4 60.6,256.4 61.6,257 62.5,257.5 62.9,257.8 63.3,258.1 63.7,258.5 64.1,258.8 
		64.4,259.1 64.5,259.3 64.7,259.5 64.8,259.7 64.9,259.9 65.1,260.1 65.2,260.3 65.4,260.8 65.6,261.2 65.7,261.6 65.8,262 
		65.9,262.4 66,262.8 66,263.2 66,263.6 66,263.9 66,264.3 65.9,264.6 65.8,264.9 65.7,265.3 65.6,265.5 65.5,265.8 65.3,266.1 
		65.2,266.3 65,266.6 64.8,266.8 64.6,267 64.4,267.2 64.2,267.4 64,267.5 63.8,267.7 63.5,267.8 63.3,267.9 63.1,268 62.8,268.1 
		62.7,268.1 62.6,268.1 62.5,268.1 62.4,268.2 62.2,268.2 62.1,268.2 62,268.2 61.9,268.2 61.4,268.1 60.9,268.1 60.5,268 
		60.1,267.9 59.9,267.8 59.7,267.8 59.5,267.7 59.4,267.6 59.2,267.5 59.1,267.5 58.9,267.4 58.8,267.3 58.7,267.2 58.5,267.1 
		58.4,267 58.3,266.9 58.2,266.7 58.1,266.6 58,266.5 57.9,266.4 57.8,266.2 57.8,266.1 57.7,266 57.6,265.8 57.6,265.7 57.5,265.5 
		57.4,265.2 57.3,264.9 57.3,264.6 57.2,264.2 57.2,263.9 57.1,263.1 57.1,262.3 57.2,259 41.4,259 41.4,266.4 41.4,266.8 
		41.4,267.2 41.5,267.6 41.5,267.9 41.6,268.3 41.7,268.6 41.8,269 41.9,269.3 42,269.7 42.1,270 42.3,270.3 42.4,270.7 42.6,271 
		42.8,271.3 43.2,271.9 43.6,272.5 44,273 44.5,273.6 45.1,274.1 45.7,274.6 46.3,275 46.9,275.5 47.6,275.9 48.3,276.3 49,276.6 
		49.7,277 50.5,277.3 52.1,277.9 53.8,278.3 55.5,278.7 57.3,279 59.1,279.1 60.9,279.2 62.8,279.2 64.6,279 66.4,278.8 68.2,278.4 
		69.9,278 70.7,277.7 71.5,277.4 72.3,277.1 73.1,276.8 73.8,276.4 74.6,276 75.3,275.6 76,275.1 76.6,274.6 77.2,274.1 77.8,273.6 
		78.4,273 78.9,272.5 79.3,271.8 79.8,271.2 80.2,270.5 80.5,269.8 80.8,269.1 81.1,268.3 81.3,267.6 81.5,266.8 81.6,265.9 
		81.7,263.7 81.8,261.7 81.8,259.8 81.6,258.1 81.5,257.3 81.4,256.5 81.3,255.8 81.1,255.1 80.9,254.4 80.7,253.8 80.4,253.2 
		80.2,252.6 79.9,252 79.6,251.5 79.3,251 79,250.5 78.7,250.1 78.3,249.6 77.9,249.2 77.6,248.8 77.2,248.5 76.8,248.1 76.3,247.8 
		75.9,247.4 75,246.8 74.1,246.3 73.1,245.7 72.1,245.2 70.1,244.3 65.9,242.4 64.8,241.9 63.8,241.3 62.8,240.7 61.8,240 
		60.9,239.3 59.9,238.4 59.5,238 59.1,237.5 58.6,237.1 58.2,236.5 58,236.1 57.9,235.7 57.7,235.3 57.6,234.9 57.5,234.5 
		57.5,234.2 57.5,234 57.5,233.8 57.4,233.6 57.5,233.5 57.5,233.3 57.5,233.2 57.5,233 57.5,232.9 57.6,232.7 57.6,232.6 
		57.6,232.4 57.7,232.3 57.7,232.2 57.8,232 57.8,231.9 57.9,231.8 58,231.7 58,231.5 58.1,231.4 58.2,231.3 58.4,231.1 58.5,230.9 
		58.7,230.7 58.9,230.6 59.1,230.4 59.3,230.3 59.5,230.2 59.7,230 60,229.9 60.2,229.8 60.4,229.8 60.6,229.7 60.8,229.6 61,229.6 
		61.2,229.6 61.4,229.6 61.9,229.6 62.4,229.6 62.9,229.7 63.3,229.7 63.7,229.8 63.8,229.9 64,230 64.2,230 64.3,230.1 64.5,230.2 
		64.6,230.2 64.8,230.3 64.9,230.4 65,230.5 65.1,230.6 65.2,230.7 65.3,230.8 65.4,230.9 65.5,231 65.6,231.1 65.7,231.2 
		65.7,231.3 65.8,231.5 65.9,231.6 65.9,231.7 66,231.9 66,232 66.1,232.3 66.2,232.6 66.2,232.9 66.3,233.2 66.3,233.9 66.3,234.6 
		66.2,237.9 80.6,237.9 80.6,230.1 80.6,229.7 80.6,229.3 80.5,228.9 80.5,228.5 80.4,228.1 80.3,227.7 80.2,227.4 80.1,227 
		79.9,226.7 79.8,226.3 79.6,226 79.5,225.7 79.3,225.4 79.1,225.1 78.9,224.8 78.7,224.5 78.4,224.2 78.2,224 77.9,223.7 
		77.7,223.4 77.1,223 76.5,222.5 75.9,222.1 75.2,221.7 74.5,221.4 73.8,221 73.1,220.7 72.3,220.4 70.7,220 69.1,219.6 67.4,219.2 
		65.8,219 64.1,218.8 	"/>
	<polygon id="XMLID_1_" class="st0" points="440.6,281.3 442.4,281.3 444.1,281.3 445.7,281.2 447.1,281 448.5,280.8 449.7,280.5 
		450.3,280.3 450.8,280.1 451.3,279.9 451.9,279.7 452.3,279.5 452.8,279.2 453.2,279 453.6,278.7 454,278.4 454.4,278.2 
		454.7,277.9 455.1,277.6 455.4,277.3 455.7,276.9 455.9,276.6 456.2,276.3 456.4,275.9 456.7,275.6 456.9,275.2 457.1,274.9 
		457.2,274.5 457.4,274.2 457.7,273.4 457.9,272.7 458.1,271.9 458.3,271.1 458.4,270.3 458.5,269.6 458.5,268.8 458.6,267.3 
		458.6,265.9 458.6,263.4 458.6,248 439.9,248 439.9,256.2 443.7,256.2 443.7,265.9 443.7,266.1 443.7,266.3 443.7,266.5 
		443.6,266.7 443.6,266.9 443.5,267.1 443.5,267.3 443.4,267.4 443.3,267.6 443.2,267.8 443.1,268 443,268.1 442.9,268.3 
		442.8,268.5 442.7,268.6 442.5,268.7 442.4,268.9 442.2,269 442.1,269.1 441.9,269.2 441.8,269.3 441.6,269.4 441.4,269.5 
		441.2,269.6 441,269.7 440.9,269.8 440.7,269.8 440.5,269.9 440.3,269.9 440.1,269.9 439.9,269.9 439.6,269.9 439.4,269.9 
		439.2,269.9 439,269.9 438.8,269.9 438.6,269.8 438.4,269.8 438.2,269.7 438.1,269.6 437.9,269.5 437.7,269.4 437.5,269.3 
		437.4,269.2 437.2,269.1 437.1,269 436.9,268.9 436.8,268.7 436.6,268.6 436.5,268.5 436.4,268.3 436.3,268.1 436.2,268 
		436.1,267.8 436,267.6 435.9,267.4 435.8,267.3 435.8,267.1 435.7,266.9 435.7,266.7 435.6,266.5 435.6,266.3 435.6,266.1 
		435.6,265.9 435.6,234.3 435.6,234.1 435.6,233.9 435.6,233.7 435.7,233.5 435.7,233.3 435.8,233.1 435.8,232.9 435.9,232.7 
		436,232.5 436.1,232.4 436.2,232.2 436.3,232 436.4,231.9 436.5,231.7 436.6,231.6 436.8,231.4 436.9,231.3 437.1,231.2 437.2,231 
		437.4,230.9 437.5,230.8 437.7,230.7 437.9,230.6 438.1,230.6 438.2,230.5 438.4,230.4 438.6,230.4 438.8,230.3 439,230.3 
		439.2,230.3 439.4,230.2 439.6,230.2 439.9,230.2 440.1,230.3 440.3,230.3 440.5,230.3 440.7,230.4 440.9,230.4 441,230.5 
		441.2,230.6 441.4,230.6 441.6,230.7 441.8,230.8 441.9,230.9 442.1,231 442.2,231.2 442.4,231.3 442.5,231.4 442.7,231.6 
		442.8,231.7 442.9,231.9 443,232 443.1,232.2 443.2,232.4 443.3,232.5 443.4,232.7 443.5,232.9 443.5,233.1 443.6,233.3 
		443.6,233.5 443.7,233.7 443.7,233.9 443.7,234.1 443.7,234.3 443.7,239.5 458.6,239.5 458.6,233.1 458.5,232.2 458.5,231.9 
		458.4,231.5 458.4,231.1 458.3,230.7 458.2,230.3 458.1,230 458,229.6 457.9,229.3 457.8,228.9 457.6,228.6 457.4,228.2 
		457.3,227.9 456.9,227.3 456.5,226.7 456,226.1 455.6,225.5 455,225 454.5,224.5 453.9,224 453.2,223.6 452.6,223.1 451.9,222.7 
		451.2,222.4 450.5,222 449.7,221.7 448.9,221.4 448.1,221.1 446.5,220.6 444.8,220.3 443,220 441.2,219.9 439.5,219.8 437.7,219.8 
		435.9,220 434.2,220.2 432.5,220.6 430.8,221.1 430,221.3 429.2,221.6 428.5,221.9 427.7,222.3 427,222.6 426.3,223 425.7,223.5 
		425.1,223.9 424.5,224.4 423.9,224.9 423.4,225.4 422.9,225.9 422.4,226.5 422,227.1 421.6,227.7 421.5,228.1 421.3,228.4 
		421.2,228.7 421,229.1 420.9,229.4 420.8,229.8 420.7,230.1 420.6,230.5 420.5,230.9 420.5,231.2 420.4,231.6 420.4,232 
		420.4,232.8 420.4,268.3 420.4,268.9 420.4,269.4 420.4,269.9 420.5,270.4 420.6,270.9 420.7,271.3 420.8,271.8 420.9,272.2 
		421,272.7 421.2,273.1 421.4,273.5 421.5,273.9 421.7,274.2 422,274.6 422.2,275 422.4,275.3 422.7,275.6 422.9,275.9 423.2,276.2 
		423.5,276.5 423.8,276.8 424.1,277.1 424.7,277.6 425.4,278.1 426.1,278.5 426.8,278.9 427.6,279.3 428.4,279.6 429.2,279.9 
		430,280.1 430.8,280.4 432.5,280.7 434.2,281 435.9,281.2 437.6,281.3 439.1,281.3 	"/>
</g>
</svg>
